<svg width="1024" height="500" viewBox="0 0 1024 500" fill="none" xmlns="http://www.w3.org/2000/svg">
  <defs>
    <linearGradient id="bg" x1="84" y1="42" x2="924" y2="468" gradientUnits="userSpaceOnUse">
      <stop stop-color="#07111F"/>
      <stop offset="1" stop-color="#12091F"/>
    </linearGradient>
    <linearGradient id="accent" x1="266" y1="76" x2="773" y2="426" gradientUnits="userSpaceOnUse">
      <stop stop-color="#7EF2E1"/>
      <stop offset="0.52" stop-color="#49E6D0"/>
      <stop offset="1" stop-color="#19B8FF"/>
    </linearGradient>
  </defs>
  <rect width="1024" height="500" rx="40" fill="url(#bg)"/>
  <circle cx="867" cy="95" r="116" fill="#49E6D0" fill-opacity="0.12"/>
  <circle cx="122" cy="429" r="132" fill="#19B8FF" fill-opacity="0.1"/>
  <rect x="590" y="78" width="240" height="278" rx="32" fill="#0D182A" stroke="rgba(112,244,255,0.24)"/>
  <rect x="620" y="120" width="150" height="20" rx="10" fill="#9CB0C9"/>
  <rect x="620" y="170" width="120" height="14" rx="7" fill="#6BE6FF"/>
  <rect x="620" y="214" width="132" height="14" rx="7" fill="#49E6D0"/>
  <rect x="620" y="258" width="100" height="14" rx="7" fill="#19B8FF"/>
  <rect x="620" y="302" width="154" height="14" rx="7" fill="#FFD5DB"/>
  <circle cx="772" cy="320" r="30" fill="url(#accent)"/>
  <path d="M758 320L769 331L789 309" stroke="#07111F" stroke-width="10" stroke-linecap="round" stroke-linejoin="round"/>
  <text x="92" y="176" fill="#F5F7FB" font-family="Segoe UI, Arial, sans-serif" font-size="54" font-weight="700">Lista de Atividades</text>
  <text x="92" y="226" fill="#9CB0C9" font-family="Segoe UI, Arial, sans-serif" font-size="24">Organize tarefas com lembretes visuais</text>
  <text x="92" y="262" fill="#9CB0C9" font-family="Segoe UI, Arial, sans-serif" font-size="24">e contagem regressiva em tempo real.</text>
  <rect x="92" y="315" width="220" height="48" rx="24" fill="url(#accent)"/>
  <text x="126" y="346" fill="#07111F" font-family="Segoe UI, Arial, sans-serif" font-size="22" font-weight="700">Foco no que importa</text>
</svg>
